<mxfile host="Electron" agent="Mozilla/5.0 (Windows NT 10.0; Win64; x64) AppleWebKit/537.36 (KHTML, like Gecko) draw.io/24.7.17 Chrome/128.0.6613.36 Electron/32.0.1 Safari/537.36" version="24.7.17">
  <diagram name="Страница — 1" id="ezRwXnQJ9CFzAkqLDkGA">
    <mxGraphModel dx="1434" dy="844" grid="1" gridSize="10" guides="1" tooltips="1" connect="1" arrows="1" fold="1" page="1" pageScale="1" pageWidth="827" pageHeight="1169" math="0" shadow="0">
      <root>
        <mxCell id="0" />
        <mxCell id="1" parent="0" />
        <mxCell id="TjYJ-jFr5U3Thmlo7Ltg-2" value="Ecosystem" style="rounded=0;whiteSpace=wrap;html=1;" parent="1" vertex="1">
          <mxGeometry x="354" y="20" width="120" height="60" as="geometry" />
        </mxCell>
        <mxCell id="TjYJ-jFr5U3Thmlo7Ltg-16" style="edgeStyle=orthogonalEdgeStyle;rounded=0;orthogonalLoop=1;jettySize=auto;html=1;exitX=0.75;exitY=1;exitDx=0;exitDy=0;entryX=0.5;entryY=0;entryDx=0;entryDy=0;" parent="1" source="TjYJ-jFr5U3Thmlo7Ltg-3" target="TjYJ-jFr5U3Thmlo7Ltg-5" edge="1">
          <mxGeometry relative="1" as="geometry" />
        </mxCell>
        <mxCell id="TjYJ-jFr5U3Thmlo7Ltg-17" style="edgeStyle=orthogonalEdgeStyle;rounded=0;orthogonalLoop=1;jettySize=auto;html=1;exitX=1;exitY=0.5;exitDx=0;exitDy=0;entryX=0;entryY=0.5;entryDx=0;entryDy=0;" parent="1" source="TjYJ-jFr5U3Thmlo7Ltg-3" target="TjYJ-jFr5U3Thmlo7Ltg-4" edge="1">
          <mxGeometry relative="1" as="geometry" />
        </mxCell>
        <mxCell id="TjYJ-jFr5U3Thmlo7Ltg-3" value="Simulation" style="rounded=0;whiteSpace=wrap;html=1;" parent="1" vertex="1">
          <mxGeometry x="354" y="120" width="120" height="60" as="geometry" />
        </mxCell>
        <mxCell id="TjYJ-jFr5U3Thmlo7Ltg-25" style="edgeStyle=orthogonalEdgeStyle;rounded=0;orthogonalLoop=1;jettySize=auto;html=1;exitX=1;exitY=0.5;exitDx=0;exitDy=0;entryX=0.5;entryY=1;entryDx=0;entryDy=0;" parent="1" source="TjYJ-jFr5U3Thmlo7Ltg-4" target="TjYJ-jFr5U3Thmlo7Ltg-13" edge="1">
          <mxGeometry relative="1" as="geometry" />
        </mxCell>
        <mxCell id="TjYJ-jFr5U3Thmlo7Ltg-4" value="SimulationManager" style="rounded=0;whiteSpace=wrap;html=1;" parent="1" vertex="1">
          <mxGeometry x="520" y="120" width="120" height="60" as="geometry" />
        </mxCell>
        <mxCell id="TjYJ-jFr5U3Thmlo7Ltg-19" style="edgeStyle=orthogonalEdgeStyle;rounded=0;orthogonalLoop=1;jettySize=auto;html=1;exitX=0.25;exitY=1;exitDx=0;exitDy=0;entryX=0.25;entryY=0;entryDx=0;entryDy=0;" parent="1" source="TjYJ-jFr5U3Thmlo7Ltg-5" target="TjYJ-jFr5U3Thmlo7Ltg-6" edge="1">
          <mxGeometry relative="1" as="geometry" />
        </mxCell>
        <mxCell id="TjYJ-jFr5U3Thmlo7Ltg-21" style="edgeStyle=orthogonalEdgeStyle;rounded=0;orthogonalLoop=1;jettySize=auto;html=1;exitX=0.5;exitY=1;exitDx=0;exitDy=0;entryX=0.5;entryY=0;entryDx=0;entryDy=0;" parent="1" source="TjYJ-jFr5U3Thmlo7Ltg-5" target="TjYJ-jFr5U3Thmlo7Ltg-8" edge="1">
          <mxGeometry relative="1" as="geometry" />
        </mxCell>
        <mxCell id="TjYJ-jFr5U3Thmlo7Ltg-22" style="edgeStyle=orthogonalEdgeStyle;rounded=0;orthogonalLoop=1;jettySize=auto;html=1;exitX=0.75;exitY=1;exitDx=0;exitDy=0;entryX=0.5;entryY=0;entryDx=0;entryDy=0;" parent="1" source="TjYJ-jFr5U3Thmlo7Ltg-5" target="TjYJ-jFr5U3Thmlo7Ltg-9" edge="1">
          <mxGeometry relative="1" as="geometry" />
        </mxCell>
        <mxCell id="TjYJ-jFr5U3Thmlo7Ltg-5" value="SimulationService" style="rounded=0;whiteSpace=wrap;html=1;" parent="1" vertex="1">
          <mxGeometry x="430" y="220" width="120" height="60" as="geometry" />
        </mxCell>
        <mxCell id="TjYJ-jFr5U3Thmlo7Ltg-23" style="edgeStyle=orthogonalEdgeStyle;rounded=0;orthogonalLoop=1;jettySize=auto;html=1;exitX=0.5;exitY=1;exitDx=0;exitDy=0;entryX=0.5;entryY=0;entryDx=0;entryDy=0;" parent="1" source="TjYJ-jFr5U3Thmlo7Ltg-6" target="TjYJ-jFr5U3Thmlo7Ltg-11" edge="1">
          <mxGeometry relative="1" as="geometry" />
        </mxCell>
        <mxCell id="TjYJ-jFr5U3Thmlo7Ltg-6" value="AnimalRepo" style="rounded=0;whiteSpace=wrap;html=1;" parent="1" vertex="1">
          <mxGeometry x="139" y="320" width="120" height="60" as="geometry" />
        </mxCell>
        <mxCell id="TjYJ-jFr5U3Thmlo7Ltg-24" style="edgeStyle=orthogonalEdgeStyle;rounded=0;orthogonalLoop=1;jettySize=auto;html=1;exitX=0.5;exitY=1;exitDx=0;exitDy=0;entryX=0.5;entryY=0;entryDx=0;entryDy=0;" parent="1" source="TjYJ-jFr5U3Thmlo7Ltg-7" target="TjYJ-jFr5U3Thmlo7Ltg-12" edge="1">
          <mxGeometry relative="1" as="geometry" />
        </mxCell>
        <mxCell id="TjYJ-jFr5U3Thmlo7Ltg-7" value="PlantRepo" style="rounded=0;whiteSpace=wrap;html=1;" parent="1" vertex="1">
          <mxGeometry x="279" y="320" width="120" height="60" as="geometry" />
        </mxCell>
        <mxCell id="TjYJ-jFr5U3Thmlo7Ltg-8" value="ConditionRepo" style="rounded=0;whiteSpace=wrap;html=1;" parent="1" vertex="1">
          <mxGeometry x="419" y="320" width="120" height="60" as="geometry" />
        </mxCell>
        <mxCell id="TjYJ-jFr5U3Thmlo7Ltg-9" value="ResourceRepo" style="rounded=0;whiteSpace=wrap;html=1;" parent="1" vertex="1">
          <mxGeometry x="559" y="320" width="120" height="60" as="geometry" />
        </mxCell>
        <mxCell id="TjYJ-jFr5U3Thmlo7Ltg-18" style="edgeStyle=orthogonalEdgeStyle;rounded=0;orthogonalLoop=1;jettySize=auto;html=1;exitX=1;exitY=0.5;exitDx=0;exitDy=0;entryX=0;entryY=0.5;entryDx=0;entryDy=0;" parent="1" source="TjYJ-jFr5U3Thmlo7Ltg-10" target="TjYJ-jFr5U3Thmlo7Ltg-5" edge="1">
          <mxGeometry relative="1" as="geometry" />
        </mxCell>
        <mxCell id="TjYJ-jFr5U3Thmlo7Ltg-10" value="PredictionService" style="rounded=0;whiteSpace=wrap;html=1;" parent="1" vertex="1">
          <mxGeometry x="259" y="220" width="120" height="60" as="geometry" />
        </mxCell>
        <mxCell id="TjYJ-jFr5U3Thmlo7Ltg-11" value="Animal" style="rounded=0;whiteSpace=wrap;html=1;" parent="1" vertex="1">
          <mxGeometry x="139" y="410" width="120" height="60" as="geometry" />
        </mxCell>
        <mxCell id="TjYJ-jFr5U3Thmlo7Ltg-12" value="Plant" style="rounded=0;whiteSpace=wrap;html=1;" parent="1" vertex="1">
          <mxGeometry x="279" y="410" width="120" height="60" as="geometry" />
        </mxCell>
        <mxCell id="TjYJ-jFr5U3Thmlo7Ltg-13" value="FileHandler" style="rounded=0;whiteSpace=wrap;html=1;" parent="1" vertex="1">
          <mxGeometry x="670" y="20" width="120" height="60" as="geometry" />
        </mxCell>
        <mxCell id="TjYJ-jFr5U3Thmlo7Ltg-14" value="" style="endArrow=classic;html=1;rounded=0;exitX=0.5;exitY=1;exitDx=0;exitDy=0;entryX=0.5;entryY=0;entryDx=0;entryDy=0;" parent="1" source="TjYJ-jFr5U3Thmlo7Ltg-2" target="TjYJ-jFr5U3Thmlo7Ltg-3" edge="1">
          <mxGeometry width="50" height="50" relative="1" as="geometry">
            <mxPoint x="390" y="350" as="sourcePoint" />
            <mxPoint x="440" y="300" as="targetPoint" />
          </mxGeometry>
        </mxCell>
        <mxCell id="TjYJ-jFr5U3Thmlo7Ltg-15" style="edgeStyle=orthogonalEdgeStyle;rounded=0;orthogonalLoop=1;jettySize=auto;html=1;exitX=0.25;exitY=1;exitDx=0;exitDy=0;entryX=0.45;entryY=0.033;entryDx=0;entryDy=0;entryPerimeter=0;" parent="1" source="TjYJ-jFr5U3Thmlo7Ltg-3" target="TjYJ-jFr5U3Thmlo7Ltg-10" edge="1">
          <mxGeometry relative="1" as="geometry" />
        </mxCell>
        <mxCell id="TjYJ-jFr5U3Thmlo7Ltg-20" style="edgeStyle=orthogonalEdgeStyle;rounded=0;orthogonalLoop=1;jettySize=auto;html=1;exitX=0.25;exitY=1;exitDx=0;exitDy=0;entryX=0.442;entryY=-0.017;entryDx=0;entryDy=0;entryPerimeter=0;" parent="1" source="TjYJ-jFr5U3Thmlo7Ltg-5" target="TjYJ-jFr5U3Thmlo7Ltg-7" edge="1">
          <mxGeometry relative="1" as="geometry" />
        </mxCell>
        <mxCell id="TjYJ-jFr5U3Thmlo7Ltg-27" value="&lt;h1 style=&quot;margin-top: 0px;&quot;&gt;Ecosystem&lt;/h1&gt;&lt;div&gt;Класс для работы непосредственно с симуляцией.&lt;/div&gt;" style="text;html=1;whiteSpace=wrap;overflow=hidden;rounded=0;" parent="1" vertex="1">
          <mxGeometry x="30" y="500" width="180" height="120" as="geometry" />
        </mxCell>
        <mxCell id="TjYJ-jFr5U3Thmlo7Ltg-28" value="&lt;h1 style=&quot;margin-top: 0px;&quot;&gt;Simulation&lt;/h1&gt;&lt;div&gt;Хранит в себе данные о симуляции. То есть предикш сервис и сервис симуляции&lt;/div&gt;" style="text;html=1;whiteSpace=wrap;overflow=hidden;rounded=0;" parent="1" vertex="1">
          <mxGeometry x="174" y="500" width="180" height="120" as="geometry" />
        </mxCell>
        <mxCell id="TjYJ-jFr5U3Thmlo7Ltg-29" value="&lt;h1 style=&quot;margin-top: 0px;&quot;&gt;Sim Manager&lt;/h1&gt;&lt;div&gt;Нужен для управления симуляцей. Загрузки старой или создания новой&lt;/div&gt;" style="text;html=1;whiteSpace=wrap;overflow=hidden;rounded=0;" parent="1" vertex="1">
          <mxGeometry x="370" y="500" width="180" height="120" as="geometry" />
        </mxCell>
        <mxCell id="TjYJ-jFr5U3Thmlo7Ltg-30" value="&lt;h1 style=&quot;margin-top: 0px;&quot;&gt;File Handler&lt;/h1&gt;&lt;div&gt;Сериализация и десериализация объектов. Сборка в репозитории и сервисы. На выходе будет отдавать объект класса Simulation&lt;/div&gt;" style="text;html=1;whiteSpace=wrap;overflow=hidden;rounded=0;" parent="1" vertex="1">
          <mxGeometry x="550" y="500" width="180" height="140" as="geometry" />
        </mxCell>
        <mxCell id="TjYJ-jFr5U3Thmlo7Ltg-31" value="&lt;h1 style=&quot;margin-top: 0px;&quot;&gt;PredictionServ&lt;/h1&gt;&lt;div&gt;Будет взаимодействовать с текущим состоянием симуляции и на основе текущих данных будет выдавать прогноз&lt;/div&gt;" style="text;html=1;whiteSpace=wrap;overflow=hidden;rounded=0;" parent="1" vertex="1">
          <mxGeometry x="30" y="620" width="180" height="140" as="geometry" />
        </mxCell>
        <mxCell id="TjYJ-jFr5U3Thmlo7Ltg-32" value="&lt;h1 style=&quot;margin-top: 0px;&quot;&gt;SimulationServ&lt;/h1&gt;&lt;div&gt;Непосредственное взаимодействие с репозиториями, условиями и ресурсами экосистемы&lt;/div&gt;" style="text;html=1;whiteSpace=wrap;overflow=hidden;rounded=0;" parent="1" vertex="1">
          <mxGeometry x="219" y="630" width="180" height="120" as="geometry" />
        </mxCell>
        <mxCell id="TjYJ-jFr5U3Thmlo7Ltg-33" value="&lt;h1 style=&quot;margin-top: 0px;&quot;&gt;Repository&lt;/h1&gt;&lt;div&gt;Классы-репозитории как коллекции для реализации CRUD операций&lt;/div&gt;" style="text;html=1;whiteSpace=wrap;overflow=hidden;rounded=0;" parent="1" vertex="1">
          <mxGeometry x="419" y="650" width="180" height="120" as="geometry" />
        </mxCell>
        <mxCell id="TjYJ-jFr5U3Thmlo7Ltg-34" value="&lt;h1 style=&quot;margin-top: 0px;&quot;&gt;Animal&lt;/h1&gt;&lt;div&gt;Базовое представление животного&lt;/div&gt;" style="text;html=1;whiteSpace=wrap;overflow=hidden;rounded=0;" parent="1" vertex="1">
          <mxGeometry x="30" y="770" width="180" height="120" as="geometry" />
        </mxCell>
        <mxCell id="TjYJ-jFr5U3Thmlo7Ltg-35" value="&lt;h1 style=&quot;margin-top: 0px;&quot;&gt;Plant&lt;/h1&gt;&lt;div&gt;Базовое представление растения&lt;/div&gt;" style="text;html=1;whiteSpace=wrap;overflow=hidden;rounded=0;" parent="1" vertex="1">
          <mxGeometry x="180" y="770" width="180" height="120" as="geometry" />
        </mxCell>
        <mxCell id="TYYptoldmN7xSV-I5oWN-2" value="Надо дописать запись в файл условий и текущих ресурсов, тогда пункт первый будет готов. Добавить побольше животных и придумать логику для их взаимодействия" style="text;html=1;align=left;verticalAlign=top;whiteSpace=wrap;rounded=0;" vertex="1" parent="1">
          <mxGeometry x="10" y="950" width="320" height="130" as="geometry" />
        </mxCell>
      </root>
    </mxGraphModel>
  </diagram>
</mxfile>
